# xmcd CD database file
#
# Track frame offsets:
#	150
#	24837
#	40550
#	61296
#	89855
#	106139
#	127347
#	152772
#	175927
#
# Disc length: 2549 seconds
#
# Revision: 0
# Processed by: cddbd v1.5.2PL0 Copyright (c) Steve Scherf et al.
# Submitted via: CDex 1.60beta1-cs1
#
DISCID=7009f309
DTITLE=Will Bonness - Subtle Fire
DYEAR=1900
DGENRE=Jazz
TTITLE0=Softly, as in a morning Sunrise
TTITLE1=Walking on Water
TTITLE2=Rippy
TTITLE3=Soundscape
TTITLE4=It never entered my Mind
TTITLE5=Kindling
TTITLE6=Subtle Fire
TTITLE7=The Oneironaut
TTITLE8=Gingerbread Boy
EXTD=
EXTT0=
EXTT1=
EXTT2=
EXTT3=
EXTT4=
EXTT5=
EXTT6=
EXTT7=
EXTT8=
PLAYORDER=
